<svg version="1" xmlns="http://www.w3.org/2000/svg" viewBox="0 0 340 250" color-interpolation-filters="sRGB">
  <linearGradient id="a" x1="0%" y1="0%" y2="0%">
    <stop offset="0%" stop-color="#fc0"/>
    <stop offset="100%" stop-color="#00b140"/>
  </linearGradient>
  <g fill="url(#a)" transform="translate(59.65 62)">
    <path stroke="url(#a)" stroke-width="3" fill="none" d="M110.35 20V0H0v126h110.35v-20"/>
    <path fill="none" d="M0 20h220.7v86H0z"/>
    <path d="M72.7 24.5q0 .4-1.55 2.85T67.2 33.4Q64.8 37 62 41.15q-2.8 4.15-5.4 7.9-2.6 3.75-4.55 6.5-1.95 2.75-2.55 3.55-.4.7-1.3.7t-1.5-.8l-24-33.4q-.3-.3-.3-.8 0-.7.55-1.15.55-.45 1.15-.45.6 0 1.1.6l22.9 31.8 21.7-31.9q.4-.7 1.3-.7.6 0 1.1.45.5.45.5 1.05M49.3 74.4v27.1q0 .6-.45 1.05-.45.45-1.05.45-.6 0-1.05-.45-.45-.45-.45-1.05V74.9q-.8-1.1-3.8-5.15-3-4.05-7.05-9.55-4.05-5.5-8.5-11.65t-8.25-11.4q-3.8-5.25-6.25-8.8Q10 24.8 10 24.4q0-.6.55-1t1.15-.4q.7 0 1.2.6L49 73.5q.3.5.3.9zm92.6-49.9q0 .6-.45 1.05-.45.45-1.05.45H91.2q-.6 0-1.05-.45-.45-.45-.45-1.05 0-.6.45-1.05.45-.45 1.05-.45h49.2q.6 0 1.05.45.45.45.45 1.05m.5 9.7q0 .6-.45 1.1-.45.5-1.05.5h-23.2v65.7q0 .6-.5 1.05-.5.45-1.1.45-.6 0-1.1-.4-.5-.4-.5-1.1V35.8H91.2q-.6 0-1.05-.5-.45-.5-.45-1.1 0-.6.4-1.15.4-.55 1.1-.55h49.7q.7 0 1.1.55.4.55.4 1.15zm67.8-9.7q0 .6-.45 1.05-.45.45-1.05.45h-49.2q-.6 0-1.05-.45-.45-.45-.45-1.05 0-.6.45-1.05.45-.45 1.05-.45h49.2q.6 0 1.05.45.45.45.45 1.05m.5 9.7q0 .6-.45 1.1-.45.5-1.05.5H186v65.7q0 .6-.5 1.05-.5.45-1.1.45-.6 0-1.1-.4-.5-.4-.5-1.1V35.8h-23.3q-.6 0-1.05-.5-.45-.5-.45-1.1 0-.6.4-1.15.4-.55 1.1-.55h49.7q.7 0 1.1.55.4.55.4 1.15z"/>
  </g>
</svg>
